# xmcd CD database file
#
# Track frame offsets:
#	150
#	17250
#	40670
#	55100
#	69282
#	89132
#	100697
#	122192
#	153950
#	171592
#	187605
#	205227
#	215457
#	237652
#
# Disc length: 3350 seconds
#
# Revision: 1
# Processed by: cddbd v1.5.1PL2 Copyright (c) Steve Scherf et al.
# Submitted via: CDex 1.51
#
DISCID=b70d140e
DTITLE=Chicken Shack featuring Stan Webb - Unlucky Boy
DYEAR=1900
DGENRE=Blues
TTITLE0=You Know You Could Be Right
TTITLE1=Revelation
TTITLE2=Prudence's Party
TTITLE3=Too Late To Cry
TTITLE4=Stan The Man
TTITLE5=Unlucky Boy
TTITLE6=As Time Goes Passing By
TTITLE7=Jammin' With The Ash
TTITLE8=He Knows The Rules
TTITLE9=As Time Goes Passing By (45rpm Single Version)
TTITLE10=Hear Me Cry
TTITLE11=Think
TTITLE12=It's Easy
TTITLE13=Doctor Brown 
EXTD=Unlucky Boy and 4 Bonus-Tracks\r\nCD - VÖ-Datum: 15.4.99\r\nIndigo, AAD, 73\r\n\r\n
EXTT0=
EXTT1=
EXTT2=
EXTT3=
EXTT4=
EXTT5=
EXTT6=
EXTT7=
EXTT8=
EXTT9=
EXTT10=Bonus Tracks
EXTT11=Bonus Tracks
EXTT12=Bonus Tracks
EXTT13=Bonus Tracks
PLAYORDER=
